{"title":"Baghban 2001 720p BluRay nHD x264 (NhaNc3) - Hindi","uid":8272401,"size":3016843446,"categoryP":"video","categoryS":"hd___movies","magnet":"?xt=urn:btih:3084c20609aa14c14f09d5b05f313f7bf32cc4a6&amp;dn=Baghban+2001+720p+BluRay+nHD+x264+%28NhaNc3%29+-+Hindi&amp;tr=udp%3A%2F%2Ftracker.openbittorrent.com%3A80&amp;tr=udp%3A%2F%2Fopen.demonii.com%3A1337&amp;tr=udp%3A%2F%2Ftracker.coppersurfer.tk%3A6969&amp;tr=udp%3A%2F%2Fexodus.desync.com%3A6969","seeders":1,"leechers":0,"uploader":"SJonam","files":1,"time":1363636985,"description":" &lt;a href=&quot;http://desibbrg.org/images/66952052392581364616.gif&quot; rel=&quot;nofollow&quot; target=&quot;_NEW&quot;&gt;http://desibbrg.org/images/66952052392581364616.gif&lt;/a&gt; &lt;a href=&quot;\nhttp://desibbrg.org/images/62701102433694982191.png&quot; rel=&quot;nofollow&quot; target=&quot;_NEW&quot;&gt;\nhttp://desibbrg.org/images/62701102433694982191.png&lt;/a&gt; &lt;a href=&quot;\nhttp://desibbrg.org/images/28459108134563994001.png&quot; rel=&quot;nofollow&quot; target=&quot;_NEW&quot;&gt;\nhttp://desibbrg.org/images/28459108134563994001.png&lt;/a&gt; &lt;a href=&quot;\nhttp://desibbrg.org/images/54119102038903865627.png&quot; rel=&quot;nofollow&quot; target=&quot;_NEW&quot;&gt;\nhttp://desibbrg.org/images/54119102038903865627.png&lt;/a&gt; &lt;a href=&quot;\nhttp://desibbrg.org/images/33203659898809236066.png&quot; rel=&quot;nofollow&quot; target=&quot;_NEW&quot;&gt;\nhttp://desibbrg.org/images/33203659898809236066.png&lt;/a&gt;\n\nMedia Info - \nVideo\nID : 1\nFormat : AVC\nFormat/Info : Advanced Video Codec\nFormat profile : &lt;a class=&quot;__cf_email__&quot; href=&quot;/cdn-cgi/l/email-protection&quot; data-cfemail=&quot;d29abbb5ba929ee6fce3&quot;&gt;[email&amp;#160;protected]&lt;/a&gt;&lt;script cf-hash='f9e31' type=&quot;text/javascript&quot;&gt;\n/* &lt;![CDATA[ */!function(){try{var t=&quot;currentScript&quot;in document?document.currentScript:function(){for(var t=document.getElementsByTagName(&quot;script&quot;),e=t.length;e--;)if(t[e].getAttribute(&quot;cf-hash&quot;))return t[e]}();if(t&amp;&amp;t.previousSibling){var e,r,n,i,c=t.previousSibling,a=c.getAttribute(&quot;data-cfemail&quot;);if(a){for(e=&quot;&quot;,r=parseInt(a.substr(0,2),16),n=2;a.length-n;n+=2)i=parseInt(a.substr(n,2),16)^r,e+=String.fromCharCode(i);e=document.createTextNode(e),c.parentNode.replaceChild(e,c)}}}catch(u){}}();/* ]]&gt; */&lt;/script&gt;\nFormat settings, CABAC : Yes\nFormat settings, ReFrames : 8 frames\nMuxing mode : Header stripping\nCodec ID : V_MPEG4/ISO/AVC\nDuration : 2h 58mn\nBit rate : 1 934 Kbps\nWidth : 1 280 pixels\nHeight : 544 pixels\nDisplay aspect ratio : 2.35:1\nFrame rate : 24.000 fps\nColor space : YUV\nChroma subsampling : 4:2:0\nBit depth : 8 bits\nScan type : Progressive\nBits/(Pixel*Frame) : 0.116\nStream size : 2.35 GiB (84%)\nWriting library : x264 core 112 r1867 22bfd31\nLanguage : English\nDefault : Yes\nForced : No\nColor primaries : BT.709-5, BT.1361, IEC 61966-2-4, SMPTE RP177\nTransfer characteristics : BT.709-5, BT.1361\nMatrix coefficients : BT.709-5, BT.1361, IEC 61966-2-4 709, SMPTE RP177\n\nAudio\nID : 2\nFormat : AC-3\nFormat/Info : Audio Coding 3\nMode extension : CM (complete main)\nMuxing mode : Header stripping\nCodec ID : A_AC3\nDuration : 2h 58mn\nBit rate mode : Constant\nBit rate : 320 Kbps\nChannel(s) : 6 channels\nChannel positions : Front: L C R, Side: L R, LFE\nSampling rate : 48.0 KHz\nBit depth : 16 bits\nCompression mode : Lossy\nStream size : 408 MiB (14%)\nLanguage : Hindi\nDefault : Yes\nForced : No\n\nRipper : NhaNc3\n\nSeeding 24x7... Extreme Seeding...\n\n\nEnjoy!\n","torrent":{"xt":"urn:btih:3084c20609aa14c14f09d5b05f313f7bf32cc4a6","amp;dn":"Baghban+2001+720p+BluRay+nHD+x264+%28NhaNc3%29+-+Hindi","amp;tr":["udp%3A%2F%2Ftracker.openbittorrent.com%3A80","udp%3A%2F%2Fopen.demonii.com%3A1337","udp%3A%2F%2Ftracker.coppersurfer.tk%3A6969","udp%3A%2F%2Fexodus.desync.com%3A6969"],"infoHash":"3084c20609aa14c14f09d5b05f313f7bf32cc4a6","infoHashBuffer":{"type":"Buffer","data":[48,132,194,6,9,170,20,193,79,9,213,176,95,49,63,123,243,44,196,166]},"announce":[],"urlList":[]}}